<?xml version="1.0" encoding="UTF-8" standalone="no"?>
<!DOCTYPE svg PUBLIC "-//W3C//DTD SVG 1.1//EN" "http://www.w3.org/Graphics/SVG/1.1/DTD/svg11.dtd">
<svg width="100%" height="100%" viewBox="0 0 1000 1000" version="1.1" xmlns="http://www.w3.org/2000/svg" xmlns:xlink="http://www.w3.org/1999/xlink" xml:space="preserve" xmlns:serif="http://www.serif.com/" style="fill-rule:evenodd;clip-rule:evenodd;stroke-linejoin:round;stroke-miterlimit:2;">
    <g>
        <rect x="282.627" y="70.65" width="124.876" height="201.245"/>
        <path d="M448.021,197.018L594.005,197.018L594.005,582.771L718.592,582.771L718.592,197.61L811.877,197.61L811.877,70.65L548.274,70.65L500,24.789L448.021,70.65L448.021,197.018Z"/>
        <rect x="730.105" y="282.062" width="198.205" height="123.173"/>
        <path d="M801.287,448.021L925.57,448.021L974.951,497.401L925.57,546.781L925.57,716.066L417.229,716.066L417.229,593.492L802.173,593.492L801.287,448.021Z"/>
        <path d="M282.799,416.229L407.049,416.229L407.049,801.649L551.979,801.649L551.979,924.682L501.451,975.211L452.07,925.83L282.716,925.83L282.799,416.229Z"/>
        <path d="M272.221,593.398L272.221,716.066L75.495,716.066L75.495,551.979L25.049,501.534L74.43,452.153L74.43,283.261L582.771,283.261L582.771,405.327L198.497,405.327L198.497,593.324L272.221,593.398Z"/>
        <path d="M594.89,728.105L718.482,728.105L718.482,928.311L594.833,928.311L594.89,728.105Z"/>
    </g>
</svg>
