<?xml version="1.0" encoding="UTF-8" standalone="no"?>
<!DOCTYPE svg PUBLIC "-//W3C//DTD SVG 1.1//EN" "http://www.w3.org/Graphics/SVG/1.1/DTD/svg11.dtd">
<svg width="100%" height="100%" viewBox="0 0 1000 1000" version="1.1" xmlns="http://www.w3.org/2000/svg" xmlns:xlink="http://www.w3.org/1999/xlink" xml:space="preserve" xmlns:serif="http://www.serif.com/" style="fill-rule:evenodd;clip-rule:evenodd;stroke-linejoin:round;stroke-miterlimit:2;">
    <g>
        <rect x="295.406" y="73.361" width="83.154" height="198.083"/>
        <path d="M445.582,77.905L497.279,26.207L550.21,79.139L826.51,77.905L826.51,158.591L705.875,158.591L705.875,597.953L623.207,597.953L623.207,159.277L445.582,159.277L445.582,77.905Z"/>
        <path d="M926.639,377.103L926.639,295.261L728.557,295.261L728.557,377.318L926.639,377.103Z"/>
        <path d="M597.953,295.261L597.953,377.318L162.375,377.318L162.375,621.639L272.115,621.639L272.115,704.659L78.095,704.659L78.095,554.332L26.479,502.717L78.177,451.019L78.177,295.261L597.953,295.261Z"/>
        <path d="M377.987,402.047L377.987,839.285L554.418,839.285L554.418,922.095L502.721,973.793L451.024,922.095L297.329,922.095L297.329,402.047"/>
        <path d="M402.047,621.948L840.855,621.948L840.855,445.582L921.823,445.582L973.521,497.279L921.823,548.976L921.823,704.359L402.047,704.359L402.047,621.948Z"/>
        <path d="M622.36,728.557L705.933,728.557L705.933,925.551L622.418,925.551L622.36,728.557Z"/>
    </g>
</svg>
